<?xml version="1.0" encoding="UTF-8"?>
<!DOCTYPE svg PUBLIC "-//W3C//DTD SVG 1.1//EN" "http://www.w3.org/Graphics/SVG/1.1/DTD/svg11.dtd">
<svg xmlns="http://www.w3.org/2000/svg" version="1.1" width="32px" height="32px" style="shape-rendering:geometricPrecision; text-rendering:geometricPrecision; image-rendering:optimizeQuality; fill-rule:evenodd; clip-rule:evenodd" xmlns:xlink="http://www.w3.org/1999/xlink">
<g><path style="opacity:0.94" fill="#090909" d="M 22.5,6.5 C 21.2616,8.2143 20.595,10.2143 20.5,12.5C 19.8333,12.5 19.5,12.8333 19.5,13.5C 17.2228,14.4486 15.2228,15.7819 13.5,17.5C 11.8828,18.038 10.2161,18.3713 8.5,18.5C 8.82719,23.0562 6.66053,25.3895 2,25.5C 2.85427,19.4162 4.35427,13.4162 6.5,7.5C 8.04533,6.54811 9.71199,6.21478 11.5,6.5C 10.8505,8.43525 10.5172,10.4352 10.5,12.5C 11.1667,13.8333 11.8333,13.8333 12.5,12.5C 13.1667,12.5 13.5,12.1667 13.5,11.5C 16.1659,10.4908 16.8326,8.82416 15.5,6.5C 10.3595,5.51192 5.02621,5.17859 -0.5,5.5C -0.5,5.16667 -0.5,4.83333 -0.5,4.5C 0.390917,3.73867 1.05758,2.73867 1.5,1.5C 7.4724,0.336392 13.4724,0.169725 19.5,1C 21.16,2.48765 22.16,4.32099 22.5,6.5 Z"/></g>
<g><path style="opacity:0.796" fill="#818181" d="M 11.5,6.5 C 12.8333,6.5 14.1667,6.5 15.5,6.5C 16.8326,8.82416 16.1659,10.4908 13.5,11.5C 12.8333,11.5 12.5,11.8333 12.5,12.5C 11.8333,12.5 11.1667,12.5 10.5,12.5C 10.5172,10.4352 10.8505,8.43525 11.5,6.5 Z"/></g>
<g><path style="opacity:0.936" fill="#878787" d="M 22.5,6.5 C 26.4525,5.98074 29.4525,7.31407 31.5,10.5C 31.5,12.1667 31.5,13.8333 31.5,15.5C 28.4006,20.2461 24.0673,23.5795 18.5,25.5C 17.5233,27.4109 16.8567,29.4109 16.5,31.5C 14.5,31.5 12.5,31.5 10.5,31.5C 11.5332,26.9013 12.8666,22.4013 14.5,18C 14.2716,17.6012 13.9382,17.4346 13.5,17.5C 15.2228,15.7819 17.2228,14.4486 19.5,13.5C 20.2389,13.369 20.9056,13.5357 21.5,14C 20.1577,16.015 19.6577,18.1817 20,20.5C 23.3049,18.8937 24.8049,16.227 24.5,12.5C 23.1667,12.5 21.8333,12.5 20.5,12.5C 20.595,10.2143 21.2616,8.2143 22.5,6.5 Z"/></g>
</svg>
